<?xml version="1.0" encoding="utf-8"?>
<!-- Generator: Adobe Illustrator 27.5.0, SVG Export Plug-In . SVG Version: 6.00 Build 0)  -->
<svg version="1.1" xmlns="http://www.w3.org/2000/svg" xmlns:xlink="http://www.w3.org/1999/xlink" x="0px" y="0px"
	 viewBox="0 0 500 500" style="enable-background:new 0 0 500 500;" xml:space="preserve">
<g id="Background_Complete">
	<g>
		<rect y="382.398" style="fill:#EBEBEB;" width="500" height="0.25"/>
		<rect x="52.459" y="391.922" style="fill:#EBEBEB;" width="33.122" height="0.25"/>
		<rect x="153.444" y="389.208" style="fill:#EBEBEB;" width="26.389" height="0.25"/>
		<rect x="89.965" y="397.824" style="fill:#EBEBEB;" width="45.923" height="0.25"/>
		<rect x="428.305" y="399.528" style="fill:#EBEBEB;" width="21.597" height="0.25"/>
		<rect x="391.471" y="399.528" style="fill:#EBEBEB;" width="31.973" height="0.25"/>
		<rect x="277.213" y="395.306" style="fill:#EBEBEB;" width="55.12" height="0.25"/>
		<path style="fill:#EBEBEB;" d="M237.014,337.8H43.915c-3.147,0-5.708-2.561-5.708-5.708V60.66c0-3.147,2.561-5.708,5.708-5.708
			h193.099c3.146,0,5.707,2.561,5.707,5.708v271.432C242.721,335.239,240.16,337.8,237.014,337.8z M43.915,55.203
			c-3.01,0-5.458,2.448-5.458,5.458v271.432c0,3.01,2.448,5.458,5.458,5.458h193.099c3.009,0,5.457-2.448,5.457-5.458V60.66
			c0-3.009-2.448-5.458-5.457-5.458H43.915z"/>
		<path style="fill:#EBEBEB;" d="M453.31,337.8H260.212c-3.147,0-5.707-2.561-5.707-5.708V60.66c0-3.147,2.561-5.708,5.707-5.708
			H453.31c3.148,0,5.708,2.561,5.708,5.708v271.432C459.019,335.239,456.458,337.8,453.31,337.8z M260.212,55.203
			c-3.009,0-5.457,2.448-5.457,5.458v271.432c0,3.01,2.448,5.458,5.457,5.458H453.31c3.01,0,5.458-2.448,5.458-5.458V60.66
			c0-3.009-2.448-5.458-5.458-5.458H260.212z"/>
	</g>
	<g>
		<g>
			<g>
				
					<rect x="70.37" y="69.22" transform="matrix(-1 -1.224647e-16 1.224647e-16 -1 411.2995 289.0657)" style="fill:#E0E0E0;" width="270.56" height="150.625"/>
				
					<rect x="55.513" y="69.22" transform="matrix(-1 -1.224647e-16 1.224647e-16 -1 395.0767 289.0657)" style="fill:#F5F5F5;" width="284.052" height="150.625"/>
				
					<rect x="126.866" y="7.148" transform="matrix(-1.836970e-16 1 -1 -1.836970e-16 342.071 -53.0055)" style="fill:#FFFFFF;" width="141.344" height="274.769"/>
				<polygon style="fill:#F5F5F5;" points="223.671,215.205 171.794,73.861 257.409,73.861 309.285,215.205 				"/>
				<polygon style="fill:#F5F5F5;" points="141.261,215.205 89.384,73.861 153.969,73.861 205.845,215.205 				"/>
			</g>
		</g>
		<g>
			<g>
				<g>
					
						<rect x="432.494" y="274.092" transform="matrix(-1 -1.224647e-16 1.224647e-16 -1 880.3896 651.8193)" style="fill:#F0F0F0;" width="15.402" height="103.634"/>
					
						<rect x="275.825" y="377.727" transform="matrix(-1 -1.224647e-16 1.224647e-16 -1 720.764 760.1253)" style="fill:#F0F0F0;" width="169.113" height="4.672"/>
					<rect x="272.868" y="274.092" style="fill:#F5F5F5;" width="159.626" height="103.634"/>
					
						<rect x="434.092" y="270.016" transform="matrix(-1 -1.224647e-16 1.224647e-16 -1 883.9255 544.1083)" style="fill:#F0F0F0;" width="15.742" height="4.076"/>
					<rect x="270.93" y="270.016" style="fill:#FAFAFA;" width="163.162" height="4.076"/>
					<path style="fill:#E0E0E0;" d="M427.068,323.213H278.294v-40.676h148.774V323.213z M279.554,321.953h146.255v-38.156H279.554
						V321.953z"/>
					<path style="fill:#E0E0E0;" d="M427.068,369.281H278.294V329.17h148.774V369.281z M279.554,368.022h146.255V330.43H279.554
						V368.022z"/>
					<path style="fill:#E0E0E0;" d="M307.803,290.652h89.755c0.912,0,1.658-0.746,1.658-1.658l0,0c0-0.912-0.746-1.658-1.658-1.658
						h-89.755c-0.912,0-1.658,0.746-1.658,1.658l0,0C306.146,289.906,306.892,290.652,307.803,290.652z"/>
					<path style="fill:#E0E0E0;" d="M307.803,337.285h89.755c0.912,0,1.658-0.746,1.658-1.658l0,0c0-0.912-0.746-1.658-1.658-1.658
						h-89.755c-0.912,0-1.658,0.746-1.658,1.658l0,0C306.146,336.539,306.892,337.285,307.803,337.285z"/>
				</g>
			</g>
		</g>
		<g>
			<path style="fill:#E6E6E6;" d="M141.606,258.116h-25.843c-9.201,0-17.502,6.617-19.673,15.682l-6.826,28.511l-14.028-0.046
				h-0.044c-6.687,0-12.432,4.752-13.688,11.322l-1.869,9.761c-2.823,0.407-5.243,2.562-5.927,5.416h69.328
				c9.193,0,17.485-6.611,19.654-15.667l9.803-40.941C154.249,264.825,149.046,258.116,141.606,258.116z M73.718,323.271H63.349
				l1.739-9c0.927-4.84,5.176-8.358,10.103-8.358h0.037l13.162,0.043l-1.663,6.945C85.292,318.896,79.803,323.271,73.718,323.271z"
				/>
			<g>
				<polygon style="fill:#E0E0E0;" points="121.298,328.763 124.259,328.763 135.912,382.398 132.951,382.398 				"/>
				<polygon style="fill:#E0E0E0;" points="110.187,328.763 113.148,328.763 124.801,382.398 121.84,382.398 				"/>
			</g>
			<g>
				<polygon style="fill:#E0E0E0;" points="66.583,328.763 63.622,328.763 51.97,382.398 54.931,382.398 				"/>
				<polygon style="fill:#E0E0E0;" points="77.695,328.763 74.733,328.763 63.081,382.398 66.042,382.398 				"/>
			</g>
		</g>
		<g>
			<path style="fill:#E6E6E6;" d="M237.582,258.116h-25.843c-9.201,0-17.502,6.617-19.673,15.682l-6.827,28.511l-14.028-0.046
				h-0.044c-6.687,0-12.432,4.752-13.688,11.322l-1.869,9.761c-2.823,0.407-5.243,2.562-5.926,5.416h69.328
				c9.193,0,17.485-6.611,19.654-15.667l9.803-40.941C250.225,264.825,245.022,258.116,237.582,258.116z M169.694,323.271h-10.369
				l1.739-9c0.927-4.84,5.176-8.358,10.103-8.358h0.037l13.161,0.043l-1.663,6.945C181.268,318.896,175.779,323.271,169.694,323.271
				z"/>
			<g>
				<polygon style="fill:#E0E0E0;" points="217.274,328.763 220.236,328.763 231.888,382.398 228.927,382.398 				"/>
				<polygon style="fill:#E0E0E0;" points="206.163,328.763 209.124,328.763 220.777,382.398 217.816,382.398 				"/>
			</g>
			<g>
				<polygon style="fill:#E0E0E0;" points="162.559,328.763 159.598,328.763 147.946,382.398 150.907,382.398 				"/>
				<polygon style="fill:#E0E0E0;" points="173.671,328.763 170.709,328.763 159.057,382.398 162.018,382.398 				"/>
			</g>
		</g>
		<g>
			<g>
				<polygon style="fill:#E6E6E6;" points="360.155,269.975 408.447,269.975 412.366,226.916 364.074,226.916 				"/>
				<polygon style="fill:#F0F0F0;" points="358.513,269.975 406.805,269.975 410.724,226.916 362.432,226.916 				"/>
				<polygon style="fill:#FFFFFF;" points="402.473,265.208 405.524,231.683 366.765,231.683 363.714,265.208 				"/>
			</g>
			<g>
				<polygon style="fill:#E6E6E6;" points="348.971,238.533 346.109,269.975 369.254,269.975 372.116,238.533 				"/>
				<polygon style="fill:#F0F0F0;" points="347.772,238.533 344.91,269.975 368.055,269.975 370.917,238.533 				"/>
				<polygon style="fill:#FFFFFF;" points="350.936,242.013 348.707,266.494 364.891,266.494 367.12,242.013 				"/>
			</g>
		</g>
	</g>
</g>
<g id="Background_Simple" style="display:none;">
	<g style="display:inline;">
		<path style="fill:#407BFF;" d="M322.502,91.127c-50.651,8.14-110.03-46.812-155.88-1.97
			c-40.06,39.179,15.136,89.066-39.193,116.498c-32.965,16.645-102.788,38.848-53.947,94.567
			c29.651,33.826,83.429,50.48,128.021,45.24c69.066-8.117,24.071-81.271,61.712-115.86c16.921-15.549,33.467-7.752,52.563-6.675
			c28.088,1.584,64.328,0.88,91.37-10.991c43.033-18.891,63.911-83.818,45.972-127.536C421.805,8.083,369.193,83.624,322.502,91.127
			z"/>
		<path style="opacity:0.9;fill:#FFFFFF;" d="M322.502,91.127c-50.651,8.14-110.03-46.812-155.88-1.97
			c-40.06,39.179,15.136,89.066-39.193,116.498c-32.965,16.645-102.788,38.848-53.947,94.567
			c29.651,33.826,83.429,50.48,128.021,45.24c69.066-8.117,24.071-81.271,61.712-115.86c16.921-15.549,33.467-7.752,52.563-6.675
			c28.088,1.584,64.328,0.88,91.37-10.991c43.033-18.891,63.911-83.818,45.972-127.536C421.805,8.083,369.193,83.624,322.502,91.127
			z"/>
	</g>
</g>
<g id="Shadow_1_">
	<ellipse id="_x3C_Path_x3E__352_" style="fill:#F5F5F5;" cx="250" cy="416.238" rx="193.889" ry="11.323"/>
</g>
<g id="Design_stats">
	<g>
		<g>
			<path style="fill:#407BFF;" d="M407.61,312.426H144.184c-6.575,0-11.691-5.379-11.369-11.954l9.836-201.033
				c0.322-6.575,5.964-11.954,12.539-11.954h263.426c6.575,0,11.691,5.379,11.369,11.954l-9.836,201.033
				C419.827,307.047,414.185,312.426,407.61,312.426z"/>
			<path style="opacity:0.7;fill:#FFFFFF;" d="M407.61,312.426H144.184c-6.575,0-11.691-5.379-11.369-11.954l9.836-201.033
				c0.322-6.575,5.964-11.954,12.539-11.954h263.426c6.575,0,11.691,5.379,11.369,11.954l-9.836,201.033
				C419.827,307.047,414.185,312.426,407.61,312.426z"/>
		</g>
		<path style="fill:#407BFF;" d="M428.821,89.596c-1.398-1.542-3.165-2.752-5.111-3.498l0.357-0.934
			c2.092,0.802,3.992,2.103,5.494,3.76L428.821,89.596z"/>
		<rect x="397.688" y="84.191" style="fill:#407BFF;" width="21.065" height="1"/>
		<path style="fill:#407BFF;" d="M418.616,87.486H155.189c-6.574,0-12.217,5.379-12.539,11.954h287.334
			C430.306,92.865,425.19,87.486,418.616,87.486z"/>
		<path style="fill:#FFFFFF;" d="M140.863,298.874l9.094-185.883c0.151-3.083,2.772-5.582,5.855-5.582h260.232
			c3.083,0,5.46,2.499,5.309,5.582l-9.094,185.883c-0.151,3.083-2.772,5.582-5.855,5.582H146.172
			C143.089,304.456,140.712,301.957,140.863,298.874z"/>
		<g>
			<g>
				<path style="opacity:0.3;fill:#407BFF;" d="M177.776,171.141h-11.963c-1.119,0-1.982-0.907-1.927-2.026l1.029-21.031
					c0.055-1.119,1.007-2.026,2.126-2.026h11.963c1.119,0,1.982,0.907,1.927,2.026l-1.029,21.031
					C179.847,170.233,178.896,171.141,177.776,171.141z"/>
				<path style="opacity:0.3;fill:#407BFF;" d="M201.8,171.141h-11.963c-1.119,0-1.982-0.907-1.927-2.026l1.213-24.799
					c0.055-1.119,1.006-2.026,2.126-2.026h11.963c1.119,0,1.982,0.907,1.927,2.026l-1.213,24.799
					C203.871,170.233,202.919,171.141,201.8,171.141z"/>
				<path style="opacity:0.3;fill:#407BFF;" d="M225.824,171.141h-11.963c-1.119,0-1.982-0.907-1.927-2.026l1.34-27.39
					c0.055-1.119,1.006-2.026,2.126-2.026h11.963c1.119,0,1.982,0.907,1.927,2.026l-1.34,27.39
					C227.894,170.233,226.943,171.141,225.824,171.141z"/>
				<path style="opacity:0.3;fill:#407BFF;" d="M249.847,171.141h-11.963c-1.119,0-1.982-0.907-1.927-2.026l1.455-29.745
					c0.055-1.119,1.006-2.026,2.126-2.026h11.963c1.119,0,1.982,0.907,1.927,2.026l-1.455,29.745
					C251.918,170.233,250.966,171.141,249.847,171.141z"/>
				<path style="fill:#407BFF;" d="M273.871,171.141h-11.963c-1.119,0-1.982-0.907-1.927-2.026l1.899-38.813
					c0.055-1.119,1.007-2.027,2.126-2.027h11.963c1.119,0,1.982,0.907,1.927,2.027l-1.899,38.813
					C275.942,170.233,274.99,171.141,273.871,171.141z"/>
				<path style="fill:#263238;" d="M270.737,124.164l1.143-1.825c0.27-0.431-0.04-0.99-0.548-0.99h-2.107
					c-0.487,0-0.799,0.518-0.572,0.949l0.964,1.825C269.85,124.563,270.472,124.586,270.737,124.164z"/>
				<path style="opacity:0.3;fill:#407BFF;" d="M297.894,171.141h-11.963c-1.119,0-1.982-0.907-1.927-2.026l1.599-32.689
					c0.055-1.119,1.006-2.026,2.125-2.026h11.963c1.119,0,1.982,0.907,1.927,2.026l-1.599,32.689
					C299.965,170.233,299.014,171.141,297.894,171.141z"/>
			</g>
			<path style="opacity:0.1;fill:#263238;" d="M298.938,177.665H164.132c-0.365,0-0.649-0.299-0.631-0.664l0,0
				c0.018-0.365,0.331-0.664,0.696-0.664h134.806c0.365,0,0.649,0.299,0.631,0.664l0,0
				C299.616,177.366,299.303,177.665,298.938,177.665z"/>
		</g>
		<path style="opacity:0.1;fill:#263238;" d="M308.542,294.583l8.674-177.301c0.017-0.347,0.315-0.632,0.663-0.632h0.064
			c0.348,0,0.618,0.284,0.601,0.632l-8.674,177.301c-0.017,0.348-0.315,0.632-0.663,0.632h-0.064
			C308.795,295.215,308.525,294.931,308.542,294.583z"/>
		<g>
			<g>
				<path style="fill:#407BFF;" d="M353.048,150.296c-0.929,5.101,0.034,10.018,2.403,14.032l-5.943,3.66
					c-3.242-5.521-4.368-12.105-3.187-18.593c2.427-13.332,14.121-23.562,27.59-24.13l-0.042,6.823
					C363.847,132.498,354.916,140.031,353.048,150.296z"/>
				<path style="opacity:0.3;fill:#407BFF;" d="M399.967,142.456l-6.44,2.599c-2.444-6.696-8.367-11.775-16.015-12.8
					c-1.223-0.164-2.444-0.221-3.643-0.168l0.042-6.823c1.627-0.071,3.237,0.006,4.833,0.22
					C388.528,126.797,396.637,133.28,399.967,142.456z"/>
				<path style="fill:#263238;" d="M401.135,156.74c-2.756,15.136-17.397,25.934-32.435,23.919
					c-8.094-1.085-15.127-5.724-19.192-12.67l5.943-3.66c2.965,5.056,8.129,8.708,14.482,9.56
					c11.421,1.53,22.384-6.554,24.477-18.05c0.691-3.797,0.334-7.489-0.882-10.783l6.44-2.599
					C401.618,146.973,402.017,151.9,401.135,156.74z"/>
			</g>
			<path style="fill:#263238;" d="M352.875,129.725c-0.132,0-0.264-0.052-0.362-0.155l-4.438-4.666h-15.219
				c-0.276,0-0.5-0.224-0.5-0.5c0-0.276,0.224-0.5,0.5-0.5h15.434c0.137,0,0.268,0.056,0.362,0.155l4.585,4.821
				c0.19,0.2,0.183,0.517-0.018,0.707C353.123,129.679,352.999,129.725,352.875,129.725z"/>
		</g>
		<g>
			<g>
				<path style="opacity:0.3;fill:#407BFF;" d="M381.834,208.757c-4.28-2.653-9.227-3.505-13.968-2.749l-0.734-6.744
					c6.513-1.025,13.066,0.267,18.51,3.641c11.185,6.933,15.415,21.273,9.973,33.83l-6.255-2.448
					C393.419,224.948,390.446,214.095,381.834,208.757z"/>
				<path style="fill:#263238;" d="M368.267,254.569l0.461-6.826c7.24,0.122,14.534-3.518,18.863-10.173
					c0.692-1.064,1.285-2.164,1.767-3.283l6.255,2.448c-0.655,1.517-1.439,2.967-2.343,4.356
					C387.733,249.604,378.18,254.754,368.267,254.569z"/>
				<path style="fill:#407BFF;" d="M354.614,250.598c-12.699-7.872-16.145-25.117-7.633-38.201
					c4.582-7.043,11.963-11.857,20.15-13.134l0.734,6.744c-5.963,0.935-11.608,4.383-15.204,9.911
					c-6.465,9.937-3.885,22.849,5.76,28.828c3.186,1.975,6.739,2.95,10.307,2.998l-0.461,6.826
					C363.382,254.489,358.675,253.116,354.614,250.598z"/>
			</g>
			<path style="fill:#263238;" d="M349.271,203.406c-0.132,0-0.264-0.052-0.362-0.155l-4.438-4.666h-15.22
				c-0.276,0-0.5-0.224-0.5-0.5c0-0.276,0.224-0.5,0.5-0.5h15.434c0.137,0,0.268,0.056,0.362,0.155l4.585,4.821
				c0.19,0.2,0.183,0.517-0.018,0.707C349.519,203.36,349.395,203.406,349.271,203.406z"/>
		</g>
		<g>
			<path style="fill:#407BFF;" d="M336.061,279.413h-5.067c-1.402,0-2.605,1.147-2.674,2.549l-0.248,5.067
				c-0.069,1.402,1.022,2.549,2.424,2.549h5.067c1.402,0,2.605-1.147,2.674-2.549l0.248-5.067
				C338.554,280.56,337.463,279.413,336.061,279.413z"/>
			<path style="fill:#263238;" d="M364.445,279.413h-5.067c-1.402,0-2.605,1.147-2.674,2.549l-0.248,5.067
				c-0.069,1.402,1.022,2.549,2.424,2.549h5.067c1.402,0,2.605-1.147,2.674-2.549l0.248-5.067
				C366.938,280.56,365.847,279.413,364.445,279.413z"/>
			<path style="opacity:0.3;fill:#407BFF;" d="M392.828,279.413h-5.067c-1.402,0-2.605,1.147-2.674,2.549l-0.248,5.067
				c-0.069,1.402,1.022,2.549,2.424,2.549h5.067c1.402,0,2.605-1.147,2.673-2.549l0.248-5.067
				C395.321,280.56,394.23,279.413,392.828,279.413z"/>
		</g>
		<g>
			<text transform="matrix(0.9988 0 -0.0489 0.9988 171.7186 219.4348)"><tspan x="0" y="0" style="fill:#263238; font-family:'Arial-BoldMT'; font-size:10.7665px;">25.54</tspan><tspan x="26.942" y="0" style="fill:#263238; font-family:'Arial-BoldMT'; font-size:7.1777px;">%</tspan></text>
			<path style="fill:#407BFF;" d="M215.746,234.787c-0.039,0-0.077-0.004-0.116-0.014c-0.269-0.063-0.435-0.333-0.371-0.602
				c3.379-14.215,10.55-28.77,18.953-29.243c5.645-0.314,8.864,4.396,12.603,9.854c2.692,3.929,5.743,8.382,10.212,11.734
				c3.083,2.311,6.227,2.914,9.343,1.789c6.951-2.507,13.604-13.811,17.362-29.501c0.063-0.268,0.332-0.435,0.603-0.37
				c0.268,0.064,0.435,0.334,0.37,0.603c-3.894,16.256-10.621,27.549-17.996,30.209c-3.453,1.246-6.913,0.596-10.281-1.93
				c-4.601-3.451-7.702-7.976-10.437-11.968c-3.715-5.423-6.637-9.687-11.722-9.421c-7.888,0.444-14.742,14.622-18.036,28.475
				C216.177,234.633,215.972,234.787,215.746,234.787z"/>
			<path style="opacity:0.1;fill:#263238;" d="M289.003,241.71H167.849c-2.129,0-4.097-0.835-5.542-2.353
				c-1.447-1.519-2.186-3.53-2.081-5.662l1.726-35.27c0.214-4.393,3.963-7.966,8.356-7.966h121.153c2.129,0,4.097,0.835,5.541,2.352
				c1.447,1.519,2.186,3.53,2.082,5.663l-1.726,35.27C297.144,238.137,293.395,241.71,289.003,241.71z M170.308,191.46
				c-3.868,0-7.168,3.147-7.357,7.015l-1.726,35.27c-0.091,1.857,0.551,3.605,1.807,4.924c1.254,1.316,2.965,2.042,4.817,2.042
				h121.154c3.867,0,7.167-3.146,7.358-7.015l1.725-35.27c0.09-1.856-0.552-3.605-1.808-4.924c-1.254-1.316-2.965-2.041-4.817-2.041
				H170.308z"/>
			<path style="opacity:0.1;fill:#263238;" d="M194.056,200.456h-19.571c-0.613,0-1.181-0.241-1.598-0.679
				c-0.418-0.438-0.631-1.018-0.601-1.631c0.061-1.247,1.126-2.262,2.373-2.262h19.571c0.613,0,1.18,0.241,1.597,0.679
				c0.418,0.439,0.631,1.018,0.602,1.631C196.367,199.441,195.303,200.456,194.056,200.456z M174.659,196.883
				c-0.71,0-1.339,0.6-1.374,1.311c-0.017,0.337,0.099,0.654,0.326,0.893c0.226,0.238,0.536,0.369,0.873,0.369h19.571
				c0.71,0,1.339-0.6,1.374-1.311c0.017-0.337-0.1-0.655-0.327-0.893c-0.226-0.238-0.536-0.369-0.872-0.369H174.659z"/>
			<polygon style="fill:#407BFF;" points="176.299,230.197 171.219,230.197 170.97,235.278 176.051,235.278 			"/>
		</g>
		<g>
			<path style="opacity:0.3;fill:#407BFF;" d="M181.871,295.172h-10.366c-1.906,0-3.389-1.559-3.296-3.466l0.507-10.366
				c0.093-1.906,1.729-3.466,3.635-3.466h10.366c1.906,0,3.389,1.56,3.296,3.466l-0.507,10.366
				C185.413,293.612,183.777,295.172,181.871,295.172z"/>
			<path style="opacity:0.1;fill:#263238;" d="M221.618,289.514h-26.725c-0.8,0-1.54-0.315-2.084-0.886
				c-0.545-0.572-0.823-1.328-0.784-2.129c0.081-1.636,1.477-2.967,3.112-2.967h26.725c0.8,0,1.54,0.315,2.084,0.886
				c0.545,0.572,0.823,1.329,0.784,2.13C224.649,288.184,223.254,289.514,221.618,289.514z M195.137,284.532
				c-1.11,0-2.058,0.904-2.113,2.016c-0.026,0.524,0.155,1.018,0.509,1.391c0.354,0.371,0.836,0.575,1.36,0.575h26.725
				c1.11,0,2.058-0.903,2.112-2.015c0.026-0.525-0.155-1.02-0.509-1.392c-0.354-0.371-0.836-0.575-1.36-0.575H195.137z"/>
			<g>
				<path style="fill:#407BFF;" d="M176.99,289.514c-0.008,0-0.017,0-0.025-0.001c-0.276-0.013-0.488-0.248-0.475-0.523l0.216-4.428
					c0.014-0.276,0.24-0.517,0.524-0.475c0.276,0.013,0.488,0.248,0.475,0.523l-0.216,4.428
					C177.476,289.306,177.255,289.514,176.99,289.514z"/>
				<path style="fill:#407BFF;" d="M175.09,286.575c-0.132,0-0.264-0.052-0.362-0.155c-0.19-0.199-0.183-0.516,0.017-0.707
					l2.143-2.043c0.096-0.091,0.222-0.141,0.357-0.138c0.133,0.003,0.259,0.06,0.35,0.155l1.943,2.043
					c0.19,0.2,0.182,0.517-0.018,0.707c-0.199,0.19-0.517,0.183-0.707-0.018l-1.598-1.681l-1.78,1.698
					C175.338,286.529,175.214,286.575,175.09,286.575z"/>
			</g>
		</g>
		
			<text transform="matrix(0.9988 0 -0.0489 0.9988 169.444 265.9233)" style="fill:#263238; font-family:'Arial-BoldMT'; font-size:10.7665px;">$323,078.00</text>
		<g>
			<path style="opacity:0.4;fill:#263238;" d="M250.234,277.874h-10.366c-1.906,0-3.542,1.56-3.635,3.466l-0.507,10.366
				c-0.093,1.906,1.39,3.466,3.296,3.466h10.366c1.906,0,3.542-1.559,3.635-3.466l0.507-10.366
				C253.624,279.434,252.141,277.874,250.234,277.874z"/>
			<path style="opacity:0.1;fill:#263238;" d="M289.135,289.514H262.41c-0.8,0-1.54-0.315-2.084-0.886
				c-0.545-0.572-0.823-1.328-0.783-2.129c0.08-1.636,1.476-2.967,3.111-2.967h26.725c0.8,0,1.54,0.315,2.084,0.886
				c0.545,0.572,0.823,1.329,0.783,2.13C292.166,288.184,290.771,289.514,289.135,289.514z M262.654,284.532
				c-1.11,0-2.059,0.904-2.113,2.016c-0.025,0.524,0.155,1.018,0.51,1.391c0.352,0.371,0.836,0.575,1.359,0.575h26.725
				c1.11,0,2.059-0.904,2.113-2.015c0.025-0.525-0.155-1.02-0.51-1.392c-0.354-0.371-0.836-0.575-1.359-0.575H262.654z"/>
			<g>
				<path style="fill:#FFFFFF;" d="M244.534,288.96c-0.008,0-0.017,0-0.025-0.001c-0.276-0.013-0.488-0.248-0.475-0.524l0.216-4.428
					c0.013-0.276,0.243-0.509,0.524-0.475c0.276,0.013,0.488,0.248,0.475,0.523l-0.216,4.428
					C245.02,288.752,244.799,288.96,244.534,288.96z"/>
				<path style="fill:#FFFFFF;" d="M244.506,289.514c-0.004,0-0.008,0-0.012,0c-0.133-0.003-0.259-0.06-0.35-0.155l-1.943-2.043
					c-0.191-0.2-0.182-0.517,0.018-0.707c0.2-0.189,0.517-0.184,0.707,0.018l1.598,1.681l1.78-1.698
					c0.2-0.189,0.517-0.183,0.707,0.018c0.191,0.199,0.183,0.516-0.017,0.707l-2.143,2.043
					C244.758,289.464,244.635,289.514,244.506,289.514z"/>
			</g>
		</g>
	</g>
</g>
<g id="Character_1_">
	<g>
		<g>
			<path style="fill:#263238;" d="M112.106,115c-4.026,5.208-4.735,12.387-4.51,16.056c0.279,4.558-5.667,4.769-4.022,12.684
				c1.426,6.862-2.74,9.038-2.645,14.372c0.222,12.45,11.387,16.133,32.222,12.45c20.835-3.683,8.314-22.705,11.101-30.188
				c2.788-7.484,0.575-25.051-4.99-24.261C139.888,102.889,120.136,104.611,112.106,115z"/>
			<path style="fill:#B55B52;" d="M119.155,170.989c-0.141,2.534-0.411,4.811-0.748,7.197c-0.35,2.357-0.759,4.711-1.282,7.057
				c-0.52,2.35-1.134,4.698-1.871,7.043c-0.744,2.353-1.638,4.698-2.73,7.045l-0.232,0.498c-1.122,2.413-3.933,3.509-6.38,2.562
				c-1.479-0.576-2.775-1.246-4.041-1.925c-1.267-0.672-2.444-1.43-3.62-2.176c-1.162-0.769-2.291-1.565-3.391-2.405
				c-1.101-0.85-2.161-1.701-3.21-2.68c-1.237-1.155-1.303-3.095-0.147-4.331c0.771-0.825,1.89-1.129,2.917-0.897l0.101,0.024
				c1.278,0.292,2.569,0.669,3.831,1.023l3.751,1.101l3.643,1.07c1.183,0.337,2.36,0.631,3.409,0.861l-6.611,3.06
				c0.645-1.868,1.177-3.859,1.676-5.89c0.461-2.054,0.868-4.15,1.241-6.269c0.342-2.129,0.678-4.273,0.956-6.431
				c0.284-2.13,0.546-4.382,0.768-6.391l0.015-0.137c0.364-3.294,3.33-5.668,6.623-5.304
				C117.003,165.043,119.324,167.835,119.155,170.989z"/>
			<path style="fill:#B55B52;" d="M90.898,184.554l-2.46-0.876c-1.271-0.453-2.666,0.228-3.092,1.509l-0.934,2.81
				c-0.372,1.119,0.121,2.342,1.165,2.891l3.079,1.618c0,0,5.04,3.841,7.513,1.493l1.371-4.006l-3.712-3.614
				C92.995,185.566,91.995,184.944,90.898,184.554z"/>
			<path style="fill:#263238;" d="M117.929,157.237c-7.37,1.389-8.929,4.401-14.355,15.592c1.637,7.363,15.627,13.835,15.627,13.835
				S130.081,166.756,117.929,157.237z"/>
			<path style="fill:#263238;" d="M130.578,409.709c4.618-6.163,5.009-7.862,7.916-11.1c2.487-2.78,2.472-2.564,5.399-4.946
				c1.939-1.578,0.774-3.844-1.01-4.802c-1.389-0.746-2.928-1.402-4.604-2.383l-7.624,6.217c0.757,3.537-0.811,10.899-4.023,15.791
				C124.344,411.989,128.725,412.174,130.578,409.709z"/>
			<path style="fill:#407BFF;" d="M108.078,213.27c0,0-7.101,49.816-12.388,83.808c-1.061,6.819-0.412,13.572,1.88,19.677
				c9.053,24.11,32.513,76.535,32.513,76.535c1.075,1.055,7.564-5.115,8.197-6.812c0,0-8.115-66.25-20.719-81.096
				c25.725-53.085,25.324-92.112,25.324-92.112H108.078z"/>
			<g style="opacity:0.2;">
				<path d="M142.867,214.753l-18.981,1.326c0,0-3.678,54.72-4.463,85.401C140.494,256.345,142.649,222.111,142.867,214.753z"/>
				<path d="M119.288,307.755c-0.259,15.73-1.052,36.207-2.593,55.115c4.81,11.074,9.14,20.862,11.501,26.176
					c2.28-6.589,4.829-14.454,7.112-22.795C132.116,346.979,126.526,319.244,119.288,307.755z"/>
			</g>
			<g>
				<path style="fill:#407BFF;" d="M126.724,390.705c0.572,0.85,1.584,2.371,2.287,3.531c0.233,0.384,0.749,0.464,1.173,0.192
					c3.17-2.036,7.551-6.219,8.977-7.61c0.282-0.275,0.374-0.677,0.232-1l-1.529-3.481c-0.209-0.475-0.829-0.587-1.287-0.233
					l-9.586,7.411C126.598,389.817,126.479,390.34,126.724,390.705z"/>
				<path style="opacity:0.3;fill:#FFFFFF;" d="M126.724,390.705c0.572,0.85,1.584,2.371,2.287,3.531
					c0.233,0.384,0.749,0.464,1.173,0.192c3.17-2.036,7.551-6.219,8.977-7.61c0.282-0.275,0.374-0.677,0.232-1l-1.529-3.481
					c-0.209-0.475-0.829-0.587-1.287-0.233l-9.586,7.411C126.598,389.817,126.479,390.34,126.724,390.705z"/>
			</g>
			<path style="fill:#263238;" d="M104.074,412.169c7.256,1.445,10.06,1.887,14.194,2.568c3.543,0.576,4.197,1.16,7.028,1.659
				c2.365,0.419,3.205-1.746,3.549-4.362c0.174-1.313,0.495-4.541,0.862-6.645l-11.248-0.595c-2.676,2.435-9.824,3.241-14.14,2.952
				C100.2,407.47,101.182,411.593,104.074,412.169z"/>
			<path style="fill:#407BFF;" d="M118.515,213.27c0,0,3.738,63.976,4.421,92.972c0.717,30.452,0.134,78.028-5.39,98.258
				c1.518,1.007,8.518,1.012,12.16-0.056c0,0,22.738-64.503,14.175-96.855c17.226-71.263,6.992-88.089,4.132-94.319H118.515z"/>
			<g>
				<path style="fill:#407BFF;" d="M118.512,400.364c-0.343,0.993-0.978,2.72-1.655,4.021c-0.244,0.469-0.054,0.942,0.412,1.064
					c3.895,1.019,10.114,0.632,12.098,0.472c0.38-0.031,0.741-0.286,0.909-0.635l1.795-3.739c0.245-0.511-0.024-1.016-0.563-1.055
					l-11.9-0.862C119.148,399.597,118.667,399.916,118.512,400.364z"/>
				<path style="opacity:0.3;fill:#FFFFFF;" d="M118.512,400.364c-0.343,0.993-0.978,2.72-1.655,4.021
					c-0.244,0.469-0.054,0.942,0.412,1.064c3.895,1.019,10.114,0.632,12.098,0.472c0.38-0.031,0.741-0.286,0.909-0.635l1.795-3.739
					c0.245-0.511-0.024-1.016-0.563-1.055l-11.9-0.862C119.148,399.597,118.667,399.916,118.512,400.364z"/>
			</g>
			<path style="fill:#263238;" d="M147.727,156.708c-1.582-0.161-3.26-0.294-4.983-0.378c-6.696-0.324-12.186-0.538-18.134,0.001
				c-1.971,0.179-4.014,0.427-5.967,0.698c-7.048,0.979-12.61,7.116-12.827,14.153c-0.121,3.927,0.73,9.855,1.557,19.207
				c1.078,12.187-1.889,18.389,0.705,22.881c5.091,4.841,28.466,2.418,39.935,0h0l0,0h0h0c3.443-4.437-3.307-16.02,7.679-44.457
				C157.891,163.124,153.647,157.309,147.727,156.708z"/>
			<path style="fill:#FFFFFF;" d="M124.011,166.062c-0.209,0.743-0.645,1.271-0.973,1.179c-0.328-0.092-0.424-0.77-0.215-1.513
				c0.209-0.743,0.645-1.271,0.973-1.179C124.124,164.641,124.22,165.319,124.011,166.062z"/>
			<path style="fill:#FFFFFF;" d="M122.536,172.231c-0.095,0.767-0.446,1.354-0.784,1.312c-0.338-0.042-0.536-0.697-0.441-1.464
				c0.095-0.766,0.446-1.354,0.784-1.312C122.433,170.81,122.63,171.465,122.536,172.231z"/>
			<path style="fill:#B55B52;" d="M138.907,136.539c-0.177,6.042-0.952,15.898,2.84,19.792c0,0-5.527-0.83-17.26,6.427
				c-3.398-4.873-0.874-6.426-0.874-6.426c3.34-0.611,6.265-4.017,4.436-8.241L138.907,136.539z"/>
			<path style="fill:#FFFFFF;" d="M126.954,161.296c3.865,0.55,5.075,6.387,5.075,6.387s9.282-6.565,12.224-11.196
				c-1.378-0.722-3.39-2.152-3.39-2.152S129.21,159.065,126.954,161.296z"/>
			<path style="fill:#FFFFFF;" d="M123.281,160.674c0,0-3.068,0.664-4.607,4.931c-0.884-8.51,3.15-9.293,3.15-9.293
				s1.212-0.865,3.494-0.505C122.253,157.425,123.281,160.674,123.281,160.674z"/>
			<path style="opacity:0.2;" d="M132.117,144.456l-1.527,0.929l-2.541,2.702c0.709,1.62,0.709,3.128,0.243,4.393
				c2.895-1.124,5.82-3.391,6.59-5.84c0.005-0.017,0.011-0.035,0.016-0.052C135.399,144.947,133.582,143.564,132.117,144.456z"/>
			<path style="fill:#B55B52;" d="M136.962,122.391c2.79,9.171,4.16,12.984,1.486,19.478c-4.023,9.768-15.537,11.721-20.923,3.697
				c-4.848-7.222-8.596-21.007-1.429-28.256C123.156,110.167,134.171,113.22,136.962,122.391z"/>
			<path style="opacity:0.4;fill:#263238;" d="M127.246,117.035c-2.344,6.253,3.226,14.045,11.197,13.445
				c3.704-7.093,1.454-12.513-0.523-14.724C135.943,113.544,129.943,113.143,127.246,117.035z"/>
			<path style="fill:#263238;" d="M137.874,116.944c-1.076,7.59-25.714,2.889-27.051,10.5
				C110.762,117.5,121.874,104.222,137.874,116.944z"/>
			<path style="fill:#263238;" d="M124.895,131.751c0.267,0.76,0.103,1.54-0.367,1.743c-0.47,0.203-1.068-0.248-1.335-1.008
				c-0.267-0.76-0.103-1.54,0.366-1.743C124.03,130.54,124.628,130.991,124.895,131.751z"/>
			<path style="fill:#263238;" d="M115.664,134.638c0.267,0.76,0.103,1.54-0.367,1.743c-0.47,0.203-1.068-0.249-1.335-1.008
				c-0.267-0.76-0.103-1.54,0.367-1.743C114.799,133.427,115.397,133.878,115.664,134.638z"/>
			<path style="fill:#263238;" d="M114.552,133.583l-1.912,0.219C112.64,133.802,114.028,134.844,114.552,133.583z"/>
			<path style="fill:#A02724;" d="M118.25,134.206c0,0-0.068,3.797-0.855,5.954c1.279,0.526,2.742-0.598,2.742-0.598L118.25,134.206
				z"/>
			<path style="fill:#263238;" d="M122.537,142.063c-0.385,0.161-0.805,0.298-1.264,0.401c-0.124,0.028-0.24-0.055-0.26-0.184
				c-0.019-0.128,0.062-0.254,0.189-0.284c3.352-0.746,4.549-3.538,4.561-3.566c0.051-0.124,0.186-0.185,0.3-0.138
				c0.115,0.047,0.166,0.186,0.115,0.309C126.133,138.709,125.17,140.958,122.537,142.063z"/>
			<path style="fill:#B55B52;" d="M142.835,130.266c0.058,2.159-0.779,3.955-1.882,4.982c-1.66,1.545-3.683-0.225-4.221-2.783
				c-0.484-2.303-0.203-5.882,1.944-6.409C140.791,125.537,142.769,127.797,142.835,130.266z"/>
			<path style="fill:#263238;" d="M124.714,127.378c-0.12,0.025-0.246,0.001-0.348-0.077c-1.59-1.22-3.195-0.591-3.213-0.584
				c-0.238,0.094-0.498-0.021-0.577-0.266c-0.078-0.244,0.053-0.52,0.293-0.618c0.084-0.033,2.098-0.825,4.071,0.69
				c0.197,0.151,0.228,0.448,0.07,0.662C124.932,127.289,124.826,127.355,124.714,127.378z"/>
			<path style="fill:#263238;" d="M111.448,132.091c-0.105,0.051-0.225,0.062-0.338,0.021c-0.233-0.084-0.347-0.356-0.256-0.606
				c0.922-2.509,2.971-3.09,3.059-3.114c0.246-0.066,0.486,0.087,0.536,0.343c0.05,0.255-0.108,0.516-0.353,0.583
				c-0.081,0.022-1.664,0.496-2.397,2.491C111.651,131.939,111.558,132.037,111.448,132.091z"/>
			<path style="fill:#263238;" d="M123.783,130.695l-1.912,0.219C121.871,130.915,123.258,131.957,123.783,130.695z"/>
			<path style="fill:#B55B52;" d="M153.79,177.824c0.009,0.528,0.004,0.776-0.003,1.137l-0.035,0.979
				c-0.032,0.643-0.093,1.271-0.159,1.899c-0.132,1.253-0.346,2.49-0.602,3.723c-0.533,2.46-1.283,4.91-2.373,7.28
				c-1.068,2.373-2.453,4.684-4.214,6.765c-1.724,2.105-3.868,3.926-6.205,5.37l-0.355,0.22c-0.3,0.185-0.634,0.327-0.957,0.42
				c-2.234,0.629-3.922,0.326-5.202-0.007c-1.294-0.361-2.304-0.835-3.233-1.324c-1.833-0.985-3.283-2.122-4.662-3.268
				c-1.357-1.17-2.597-2.383-3.759-3.652c-1.165-1.285-2.232-2.555-3.267-4.018c-0.966-1.364-0.643-3.253,0.721-4.218
				c0.998-0.707,2.277-0.723,3.27-0.147l0.116,0.069l4.023,2.345c1.34,0.767,2.668,1.51,3.977,2.158
				c1.289,0.664,2.601,1.218,3.706,1.568c0.543,0.167,1.05,0.265,1.333,0.251c0.287,0.006,0.267-0.179-0.419-0.044l-1.312,0.64
				c1.228-0.981,2.296-2.117,3.212-3.426c0.46-0.651,0.88-1.345,1.252-2.084c0.389-0.726,0.741-1.49,1.045-2.29
				c0.612-1.594,1.106-3.298,1.449-5.06c0.182-0.878,0.31-1.773,0.43-2.662c0.056-0.444,0.101-0.889,0.139-1.322l0.083-1.116
				l0.039-0.527c0.246-3.298,3.12-5.772,6.418-5.526C151.353,172.188,153.727,174.774,153.79,177.824z"/>
			<path style="fill:#407BFF;" d="M116.326,198.184H94.675c-2.019,0-3.946-1.418-4.281-3.151l-2.658-13.745
				c-0.335-1.733,1.043-3.151,3.062-3.151h21.651c2.019,0,3.946,1.418,4.281,3.151l2.658,13.745
				C119.723,196.766,118.345,198.184,116.326,198.184z"/>
			<path style="fill:#FFFFFF;" d="M115.657,197.285H94.606c-1.556,0-3.081-1.089-3.33-2.378l-2.584-13.364
				c-0.096-0.493,0.013-0.946,0.315-1.312c0.39-0.473,1.057-0.744,1.83-0.744h21.051c1.556,0,3.081,1.089,3.33,2.377l2.584,13.365
				c0.096,0.493-0.013,0.946-0.315,1.312C117.098,197.014,116.431,197.285,115.657,197.285z M90.837,179.737
				c-0.698,0-1.295,0.238-1.637,0.653c-0.253,0.306-0.344,0.689-0.263,1.105l2.584,13.364c0.228,1.179,1.641,2.175,3.085,2.175
				h21.051c0.698,0,1.295-0.238,1.637-0.653c0.254-0.306,0.344-0.688,0.263-1.105l-2.584-13.365
				c-0.229-1.179-1.641-2.175-3.085-2.175H90.837z"/>
			<path style="fill:#B55B52;" d="M116.787,185.075l-2.533-0.634c-1.309-0.328-2.632,0.485-2.932,1.8l-0.658,2.887
				c-0.262,1.149,0.347,2.319,1.438,2.764l3.221,1.313c0,0,5.387,3.336,7.622,0.76l0.977-4.12l-4.044-3.238
				C118.971,185.881,117.916,185.358,116.787,185.075z"/>
			<path style="fill:#263238;" d="M148.098,156.756c8.775,0.521,11.47,9.67,8.553,26.314c-1.417,6.25-18.945-2.293-18.945-2.293
				S137.096,163,148.098,156.756z"/>
		</g>
	</g>
</g>
<g id="Plant">
	<g>
		<g>
			<path style="fill:#407BFF;" d="M395.88,334.458c-3.186-20.004,5.548-46.232,16.628-44.301
				C421.694,291.757,397.78,328.348,395.88,334.458z"/>
			<path style="fill:#263238;" d="M392.387,344.664c10.426-14.813,3.986-45.254-7.017-45.947
				C374.45,298.028,391.491,337.208,392.387,344.664z"/>
			<path style="fill:#407BFF;" d="M392.905,353.328c-1.19-31.969,18.3-48.089,27.019-44.27
				C428.859,312.971,399.719,335.615,392.905,353.328z"/>
			<path style="fill:#407BFF;" d="M390.289,373.262c10.417-22.527,1.495-57.746-15.08-53.936
				C361.466,322.486,387.827,363.777,390.289,373.262z"/>
			<path style="fill:#263238;" d="M391.006,379.965c-1.145-21.603-7.694-49.147-21.153-46.598
				C356.97,335.806,386.988,361.107,391.006,379.965z"/>
			<path style="fill:#407BFF;" d="M387.702,390.574c3.282-31.871,30.579-49.664,30.302-37.596
				C417.707,365.906,396.872,374.316,387.702,390.574z"/>
			<path style="fill:#407BFF;" d="M390.352,383.823c3.825-11.401-5.172-26.881-14.619-23.575
				C367.899,362.989,387.894,379.66,390.352,383.823z"/>
			<path style="fill:#263238;" d="M390.596,379.565c-4.117-24.447,16.94-66.508,35.947-57.466
				C445.019,330.887,399.598,351.482,390.596,379.565z"/>
		</g>
		<g>
			<path style="fill:#407BFF;" d="M399.983,416.447h-18.182c-3.259,0-6.155-2.118-7.105-5.236
				c-2.256-7.401-3.625-15.07-3.216-22.551c0.125-2.414,0.44-4.807,0.97-7.164c0.218-0.968,1.066-1.665,2.058-1.665h32.768
				c0.992,0,1.84,0.697,2.058,1.665c0.531,2.357,0.845,4.75,0.97,7.164c0.409,7.481-0.961,15.15-3.216,22.551
				C406.138,414.329,403.242,416.447,399.983,416.447z"/>
			<path style="opacity:0.5;fill:#FFFFFF;" d="M410.304,388.661h-38.825c0.125-2.414,0.44-4.807,0.97-7.164
				c0.218-0.968,1.066-1.665,2.058-1.665h32.768c0.992,0,1.84,0.697,2.058,1.665C409.865,383.854,410.179,386.247,410.304,388.661z"
				/>
		</g>
	</g>
</g>
</svg>
