<svg xmlns="http://www.w3.org/2000/svg" viewBox="0 0 256 256"><defs><style>.cls-1{fill:#1d384d;}</style></defs><title>internet of things</title><g id="icons_without_caption" data-name="icons without caption"><g id="INTERNET_OF_THINGS" data-name="INTERNET OF THINGS"><path class="cls-1" d="M126.28,170.78l-4.14,11.94a14.87,14.87,0,0,0-1.87-.8,15.8,15.8,0,0,0-1.91-.51l3.91-11.26C123.59,170.41,124.92,170.63,126.28,170.78Z"/><path class="cls-1" d="M128.6,189.3a14.4,14.4,0,0,0-6.46-6.58,14.87,14.87,0,0,0-1.87-.8,15.8,15.8,0,0,0-1.91-.51,14,14,0,0,0-2.82-.28,14.56,14.56,0,0,0-4.76,28.32A14.57,14.57,0,0,0,128.6,189.3Zm-3.11,9.82A10.55,10.55,0,1,1,117,185.23a10.07,10.07,0,0,1,1.93.47,10.65,10.65,0,0,1,1.85.83,10.57,10.57,0,0,1,4.68,12.58Z"/><path class="cls-1" d="M90.65,147.21c.08.14.16.29.25.43l.06-.25Z"/><path class="cls-1" d="M90.65,147.21c.08.14.16.29.25.43l.06-.25Z"/><path class="cls-1" d="M178.62,125.41h0c0-.38,0-.76,0-1.15V124c0-.19,0-.39,0-.58,1-1.06,2-2.13,2.83-3.18,5.59-6.87,7.8-13.61,5.52-19.07-2.54-6.08-10.14-9.53-21.43-9.72-1.08-1.12-2.2-2.18-3.38-3.19s-2.09-1.72-3.2-2.51c-.23-.17-.47-.34-.72-.5.27-7.31-1.51-12.72-5.54-15.16-4.26-2.58-13.09-1-21.92,6.85h0a46.75,46.75,0,0,0-19.37,4.53c-1.21.58-2.38,1.2-3.53,1.88-.21.11-.42.24-.62.36C96.63,78.81,88,78.6,82.78,83.15c-6.78,6-6.13,19,1.71,35,.1.21.21.42.32.64h0q-.09.86-.15,1.71c-1.42.52-2.74,1.07-4,1.64-6.73,3.17-10.31,7.1-10.45,11.57-.18,5.7,5.31,10.89,15.66,15l.59.53c-2,11.23-.39,19.19,4.8,22.33a9.77,9.77,0,0,0,5.17,1.36c4.3,0,9.52-2.22,15.13-6.26a46.57,46.57,0,0,0,10.67,3.53c1.32.27,2.65.48,4,.63h0a46.27,46.27,0,0,0,5.29.3c1.17,0,2.34,0,3.49-.13,6.14,3,11.64,4.55,16.27,4.55a14.25,14.25,0,0,0,9.68-3.27c3.8-3.34,5.2-8.82,4.47-15.61.44-.45.87-.92,1.29-1.39.89-1,1.74-2,2.54-3.12a1.67,1.67,0,0,0,.16-.21h0c11.7-3.45,18.22-8.6,18.41-14.52C188,133,184.85,128.93,178.62,125.41Zm4.68-22.69c1.73,4.14-.29,9.54-5,15.22a46.78,46.78,0,0,0-9.13-22.28C176.6,96.37,181.69,98.87,183.3,102.72Zm-8.71,19.13h0c-.36.35-.73.7-1.12,1-1-.42-2-.83-3.13-1.23a110.74,110.74,0,0,0-20.9-5.08c4.51-9.82,7.38-19,8.41-26.69A43,43,0,0,1,174.59,121.86Zm-25.42-1.25A106,106,0,0,1,169,125.45l1.1.41a99.52,99.52,0,0,1-12.27,8.43A116.13,116.13,0,0,0,149.17,120.61Zm5.12,15.66a125.73,125.73,0,0,1-11.42,5.44c-3.62,1.51-7.24,2.84-10.82,4a156.8,156.8,0,0,0,9-13.32q2.76-4.56,5.11-9A113.51,113.51,0,0,1,154.29,136.27Zm-3.64-62.74c2.27,1.37,3.51,4.63,3.65,9.28a46.51,46.51,0,0,0-17.44-5.56C143.15,72.85,148.57,72.28,150.65,73.53Zm-19.07,7.42a42.85,42.85,0,0,1,22.54,6.38c-.71,7.48-3.54,17.36-8.69,28.38q-2-2.5-4.2-5c-9.34-10.64-19.77-19.35-29.67-24.81A42.71,42.71,0,0,1,131.58,80.95Zm-24,7.36c10.09,5.11,21,14,30.68,25,.62.7,1.22,1.41,1.82,2.12-3.37-.31-6.83-.52-10.33-.63-15.36-.48-29.89,1-40.92,4.27A43.07,43.07,0,0,1,107.55,88.31ZM82.44,142.66c-5.31-2.8-8.28-5.91-8.19-8.85.1-3.15,3.84-6.37,10.28-9A45.83,45.83,0,0,0,85,130.6C82.5,135,81.64,139.08,82.44,142.66Zm3-56.5c3.54-3.12,10-3,17.92.23A47.18,47.18,0,0,0,86.08,112C81,99.91,80.71,90.29,85.42,86.16Zm2.12,58.31a7.14,7.14,0,0,1-.81-1.45,8.94,8.94,0,0,1-.26-5.6,42.13,42.13,0,0,0,1.69,4.73C87.94,142.93,87.73,143.7,87.54,144.46Zm1-20.45c0-.21,0-.43,0-.64.44-.14.88-.28,1.34-.41,10.64-3.13,24.75-4.6,39.72-4.13,4.74.15,9.38.49,13.84,1-1.72,3.4-3.65,6.89-5.8,10.44a148.11,148.11,0,0,1-12.13,17.25,84.3,84.3,0,0,1-19.84,2.76h-.22a42,42,0,0,1-8.55-.79A42.81,42.81,0,0,1,88.52,124ZM91,147.4l-.06.25c-.09-.14-.17-.29-.25-.43Zm2.41,20.7C90,166,88.88,160,90.18,151.49a23.52,23.52,0,0,0,4.39,1.56,47.26,47.26,0,0,0,13.06,11.45C101.49,168.6,96.38,169.91,93.37,168.1Zm17.81-6.18a42.77,42.77,0,0,1-10.37-7.82c1.46.13,3,.19,4.62.19h.25a82.29,82.29,0,0,0,15.4-1.67A86.2,86.2,0,0,1,111.18,161.91Zm20.4,5.16c-1.33,0-2.65-.06-3.95-.18s-2.71-.31-4-.56a42.54,42.54,0,0,1-8.41-2.51,99.67,99.67,0,0,0,12.58-12.76,127.43,127.43,0,0,0,16.65-5.67c4.12-1.72,8-3.58,11.69-5.54a58.84,58.84,0,0,1,5.2,15.29A42.91,42.91,0,0,1,131.58,167.08Zm26.8,2.14c-3.23,2.84-8.83,3-15.82.57a46.87,46.87,0,0,0,19.19-9.67C161.72,164.09,160.64,167.23,158.38,169.21Zm6.25-17.63a67.57,67.57,0,0,0-5-13.71,97.46,97.46,0,0,0,14.57-10.24l.28.13A42.72,42.72,0,0,1,164.63,151.59Zm8.29-5.09a46.43,46.43,0,0,0,5.36-16.58c3.68,2.4,5.68,5,5.61,7.33C183.78,140.52,179.78,143.85,172.92,146.49Z"/><path class="cls-1" d="M176.88,75.58l-14.7,12.7c-1-.88-2.09-1.72-3.2-2.51l15.28-13.21a18.07,18.07,0,0,0,1.51,1.91A14.53,14.53,0,0,0,176.88,75.58Z"/><path class="cls-1" d="M196.46,122.26a12,12,0,0,0,.17,2h-18V124c0-.19,0-.39,0-.58,1-1.06,2-2.13,2.83-3.18h15.16A12,12,0,0,0,196.46,122.26Z"/><path class="cls-1" d="M111.42,81.48c-1.21.58-2.38,1.2-3.53,1.88L98.58,65.63A9.86,9.86,0,0,0,102,63.46Z"/><path class="cls-1" d="M179.55,162.43a9.89,9.89,0,0,0-1.6,1.3,10,10,0,0,0-1.25,1.52l-9.92-10c.89-1,1.74-2,2.54-3.12Z"/><path class="cls-1" d="M84.81,118.74h0q-.09.86-.15,1.71c-1.42.52-2.74,1.07-4,1.64H56.16a10,10,0,0,0,0-4H84.49C84.59,118.32,84.7,118.53,84.81,118.74Z"/><path class="cls-1" d="M208,110.71a11.58,11.58,0,0,0-11.37,9.54,11.85,11.85,0,0,0,0,4A11.54,11.54,0,1,0,208,110.71Zm0,19.08a7.53,7.53,0,0,1-7.26-5.54,7.28,7.28,0,0,1,0-4A7.54,7.54,0,1,1,208,129.8Z"/><path class="cls-1" d="M201.16,51.38a17.16,17.16,0,0,0-26.9,21.18,18.07,18.07,0,0,0,1.51,1.91,14.53,14.53,0,0,0,1.11,1.11,17.16,17.16,0,0,0,24.28-24.2Zm-3.85,21.28a13.07,13.07,0,0,1-8.84,3.42,13.22,13.22,0,0,1-8.54-3.14,12,12,0,0,1-1.2-1.16,13.79,13.79,0,0,1-1.41-1.86,13.16,13.16,0,1,1,20,2.74Z"/><path class="cls-1" d="M102.06,49.29a10,10,0,1,0-.1,14.18l.1-.1a9.95,9.95,0,0,0,0-14.08ZM90.81,60.54a6,6,0,0,1,0-8.42,6,6,0,1,1,0,8.42Z"/><path class="cls-1" d="M192,163.72a9.95,9.95,0,0,0-14.08,0,10,10,0,0,0-1.25,1.52A10,10,0,0,0,192,177.81,10,10,0,0,0,192,163.72ZM189.2,175A6,6,0,0,1,179,170.77a5.8,5.8,0,0,1,.59-2.57,5.63,5.63,0,0,1,1.16-1.64,5.73,5.73,0,0,1,1.69-1.18,6,6,0,0,1,6.73,1.18A6,6,0,0,1,189.2,175Z"/><path class="cls-1" d="M56.16,118.11a10,10,0,0,0-9.6-8H46.4a10,10,0,0,0-.13,20h.15a10,10,0,0,0,9.74-8,10,10,0,0,0,0-4Zm-9.74,8h-.09a6,6,0,0,1,.16-12h0a6,6,0,0,1,5.51,4,5.88,5.88,0,0,1,0,4A6,6,0,0,1,46.42,126.11Z"/></g></g></svg>